<?xml version="1.0" encoding="iso-8859-1"?>
<!-- Uploaded to: SVG Repo, www.svgrepo.com, Generator: SVG Repo Mixer Tools -->
<svg fill="#000000" height="800px" width="800px" version="1.1" id="Layer_1" xmlns="http://www.w3.org/2000/svg" xmlns:xlink="http://www.w3.org/1999/xlink" 
	 viewBox="0 0 488.101 488.101" xml:space="preserve">
<g>
	<g>
		<path d="M411.701,229.6L411.701,229.6c-1.8-0.6-3.5-1.1-5.3-1.6v-45.1c0-5.5-4.5-10-10-10h-104.9l-78.6-129
			c-1.8-3-5.1-4.8-8.5-4.8c0,0,0,0-0.1,0c-3.5,0-6.8,1.9-8.5,4.9l-194.4,328.5c-1.8,3.1-1.9,6.9-0.1,10c1.8,3.1,5.1,5,8.7,5h106.6
			l32.6,56.5c1.8,3.1,5.1,5,8.7,5h114.2c3.6,0,6.9-1.9,8.7-5l16.2-28c20.7,21.3,49.1,33,78.8,33c12,0,24.2-1.9,36.1-5.8
			c22.2-7.5,41.3-21.6,55.1-40.9c13.8-19.3,21.1-41.9,21.1-65.5C487.901,288,457.301,244.9,411.701,229.6z M386.301,193.001v31.5
			c-35.3-3-70.9,10.6-93.4,36.2l-12.3-21.2c-1.8-3.1-5.1-5-8.6-5h-38.7v-41.5H386.301z M27.401,367.601L27.401,367.601l177-299
			l63.6,104.4h-44.7c-5.5,0-10,4.5-10,10v51.5h-55.6c-3.6,0-6.9,1.9-8.6,5l-56.4,96.9c-1.8,3.1-1.8,6.9,0,10l12.2,21.2H27.401z
			 M286.701,393.7c0,0,0,0,0,0.1l-20.5,35.3v0h-102.7l-50.6-87.7l50.6-86.9h102.7l17,29.2c0,0,0,0,0,0.1l33.6,57.7L286.701,393.7z
			 M405.401,424.2c-36,11.9-74.6,1.3-98.1-26.3l29.7-51.5c1.8-3.1,1.8-6.9,0-10l-33.3-57.3c19.5-26.8,55.9-40.1,90.2-33.5
			c0.3,0.1,0.6,0.1,0.9,0.2c3.5,0.7,7.1,1.6,10.6,2.8c37.4,12.6,62.5,48,62.5,88.2C467.901,376.5,442.801,411.7,405.401,424.2z"/>
	</g>
</g>
</svg>