<?xml version="1.0" encoding="UTF-8" standalone="no"?>
<!-- Created with Inkscape (http://www.inkscape.org/) -->

<svg
   xmlns:dc="http://purl.org/dc/elements/1.1/"
   xmlns:cc="http://creativecommons.org/ns#"
   xmlns:rdf="http://www.w3.org/1999/02/22-rdf-syntax-ns#"
   xmlns:svg="http://www.w3.org/2000/svg"
   xmlns="http://www.w3.org/2000/svg"
   xmlns:sodipodi="http://sodipodi.sourceforge.net/DTD/sodipodi-0.dtd"
   xmlns:inkscape="http://www.inkscape.org/namespaces/inkscape"
   width="109.88271mm"
   height="14.664416mm"
   viewBox="0 0 389.34819 51.960529"
   id="svg2"
   version="1.1"
   inkscape:version="0.91 r13725"
   sodipodi:docname="logo.svg">
  <defs
     id="defs4" />
  <sodipodi:namedview
     id="base"
     pagecolor="#ffffff"
     bordercolor="#666666"
     borderopacity="1.0"
     inkscape:pageopacity="0.0"
     inkscape:pageshadow="2"
     inkscape:zoom="1.979899"
     inkscape:cx="338.04017"
     inkscape:cy="-24.039416"
     inkscape:document-units="px"
     inkscape:current-layer="layer1"
     showgrid="false"
     inkscape:snap-to-guides="true"
     fit-margin-top="0"
     fit-margin-left="0"
     fit-margin-right="0"
     fit-margin-bottom="0"
     inkscape:window-width="1920"
     inkscape:window-height="1001"
     inkscape:window-x="-9"
     inkscape:window-y="-9"
     inkscape:window-maximized="1" />
  <metadata
     id="metadata7">
    <rdf:RDF>
      <cc:Work
         rdf:about="">
        <dc:format>image/svg+xml</dc:format>
        <dc:type
           rdf:resource="http://purl.org/dc/dcmitype/StillImage" />
        <dc:title></dc:title>
      </cc:Work>
    </rdf:RDF>
  </metadata>
  <g
     inkscape:label="Layer 1"
     inkscape:groupmode="layer"
     id="layer1"
     transform="translate(-156.56846,-324.44606)">
    <path
       style="opacity:0;fill:#4285f4;fill-opacity:1;stroke:#ffffff;stroke-width:40;stroke-miterlimit:4;stroke-dasharray:none"
       d="m 195,363.79077 337.14285,0 0,87.14286 -337.14285,0 z"
       id="rect4176"
       inkscape:connector-curvature="0" />
    <g
       style="font-style:normal;font-variant:normal;font-weight:normal;font-stretch:normal;font-size:67.5px;line-height:125%;font-family:Trueno;-inkscape-font-specification:Trueno;letter-spacing:1.5px;word-spacing:-4.61999989px;fill:#daa520;fill-opacity:1;stroke:none;stroke-width:1px;stroke-linecap:butt;stroke-linejoin:miter;stroke-opacity:1"
       id="text4144">
      <path
         d="m 156.56844,334.26122 14.9175,0 0,40.095 7.965,0 0,-40.095 14.985,0 0,-7.155 -37.8675,0 0,7.155 z"
         style="letter-spacing:0.57999998px;word-spacing:-4.61999989px;fill:#daa520;fill-opacity:1"
         id="path4758"
         inkscape:connector-curvature="0" />
      <path
         d="m 201.77438,374.35622 34.56,0 0,-7.155 -26.595,0 0,-13.0275 23.085,0 0,-7.155 -23.085,0 0,-12.7575 25.785,0 0,-7.155 -33.75,0 0,47.25 z"
         style="letter-spacing:0.57999998px;word-spacing:-4.61999989px;fill:#daa520;fill-opacity:1"
         id="path4760"
         inkscape:connector-curvature="0" />
      <path
         d="m 240.50875,374.35622 8.3025,0 4.5225,-10.665 23.8275,0 4.5225,10.665 8.505,0 -20.655,-47.25 -8.1675,0 -20.8575,47.25 z m 15.795,-17.7525 8.91,-20.9925 8.91,20.9925 -17.82,0 z"
         style="letter-spacing:0.57999998px;word-spacing:-4.61999989px;fill:#daa520;fill-opacity:1"
         id="path4762"
         inkscape:connector-curvature="0" />
      <path
         d="m 297.06524,374.35622 7.4925,0 0,-35.3025 14.9175,30.375 5.1975,0 14.9175,-30.375 0.0675,35.3025 7.3575,0 0,-47.25 -9.3825,0 -15.525,31.3875 -15.5925,-31.3875 -9.45,0 0,47.25 z"
         style="letter-spacing:0.57999998px;word-spacing:-4.61999989px;fill:#daa520;fill-opacity:1"
         id="path4764"
         inkscape:connector-curvature="0" />
      <path
         d="m 373.53281,362.74622 22.545,0 0,11.61 7.425,0 0,-11.61 6.885,0 0,-7.0875 -6.885,0 0,-11.205 -7.425,0 0,11.205 -14.04,0 15.3225,-28.5525 -7.695,0 -16.1325,29.7 0,5.94 z"
         style="letter-spacing:-0.04px;word-spacing:-4.61999989px;fill:#daa520;fill-opacity:1"
         id="path4766"
         inkscape:connector-curvature="0" />
      <path
         d="m 467.16581,342.63122 c 0,9.18 5.7375,15.0525 15.1875,15.0525 5.94,0 10.395,-2.295 12.8925,-6.6825 0.27,10.1925 -3.9825,17.0775 -13.1625,17.0775 -3.5775,0 -7.56,-1.08 -10.4625,-2.97 l -3.105,6.0075 c 3.8475,2.16 9.45,3.5775 14.1075,3.5775 12.4875,0 20.385,-9.855 20.385,-24.9075 0,-14.5125 -7.29,-23.0175 -19.2375,-23.0175 -10.0575,0 -16.605,6.075 -16.605,15.8625 z m 7.425,0.0675 c 0,-5.7375 3.8475,-9.045 9.585,-9.045 6.8175,0 9.855,4.6575 9.7875,8.775 0.0675,4.86 -3.7125,8.9775 -10.125,8.9775 -5.7375,0 -9.2475,-3.3075 -9.2475,-8.7075 z"
         style="letter-spacing:1.38px;word-spacing:-4.61999989px;fill:#daa520;fill-opacity:1"
         id="path4768"
         inkscape:connector-curvature="0" />
      <path
         d="m 510.07414,342.63122 c 0,9.18 5.7375,15.0525 15.1875,15.0525 5.94,0 10.395,-2.295 12.8925,-6.6825 0.27,10.1925 -3.9825,17.0775 -13.1625,17.0775 -3.5775,0 -7.56,-1.08 -10.4625,-2.97 l -3.105,6.0075 c 3.8475,2.16 9.45,3.5775 14.1075,3.5775 12.4875,0 20.385,-9.855 20.385,-24.9075 0,-14.5125 -7.29,-23.0175 -19.2375,-23.0175 -10.0575,0 -16.605,6.075 -16.605,15.8625 z m 7.425,0.0675 c 0,-5.7375 3.8475,-9.045 9.585,-9.045 6.8175,0 9.855,4.6575 9.7875,8.775 0.0675,4.86 -3.7125,8.9775 -10.125,8.9775 -5.7375,0 -9.2475,-3.3075 -9.2475,-8.7075 z"
         style="letter-spacing:1.38px;word-spacing:-4.61999989px;fill:#daa520;fill-opacity:1"
         id="path4770"
         inkscape:connector-curvature="0" />
    </g>
    <g
       style="font-style:normal;font-weight:normal;font-size:40px;line-height:125%;font-family:sans-serif;letter-spacing:0px;word-spacing:0px;fill:#000000;fill-opacity:1;stroke:none;stroke-width:1px;stroke-linecap:butt;stroke-linejoin:miter;stroke-opacity:1"
       id="flowRoot5052" />
    <g
       style="fill:#daa520;fill-opacity:1;stroke:none"
       transform="matrix(0.00641466,0,0,-0.00641466,411.9336,383.07784)"
       id="g4775">
      <path
         inkscape:connector-curvature="0"
         d="m 4870.3107,9120.253 c -14.9487,-12.9555 -56.805,-80.7228 -94.675,-152.4764 -239.1787,-452.4463 -309.9356,-581.0049 -335.8467,-608.9091 l -28.9008,-30.8939 -161.4456,-6.976 c -144.5037,-5.9794 -166.4285,-4.9829 -196.3258,10.9623 -33.8836,17.9384 -62.7844,54.8118 -230.2095,296.9802 -38.8665,54.8119 -92.6817,133.5415 -121.5825,174.4012 -27.9041,40.8596 -77.733,112.6133 -108.627,158.4558 -67.7672,97.6647 -89.692,114.6064 -140.5175,108.627 -20.9281,-2.9898 -197.3223,-58.798 -391.655,-125.5688 -292.9939,-99.6578 -357.7714,-124.5723 -377.703,-147.4935 -27.9042,-32.887 -27.9042,-19.9316 14.9487,-559.0802 l 25.911,-321.8946 -22.9213,-38.8665 c -11.9589,-21.9248 -26.9076,-41.8563 -33.8836,-44.846 -5.9796,-1.9932 -58.7981,-37.87 -116.5997,-78.7297 -126.5653,-89.692 -157.4593,-106.6339 -197.3224,-106.6339 -15.9452,0 -138.5242,45.8427 -272.0657,100.6544 -365.7441,152.4764 -476.3642,198.319 -519.2171,214.2643 -61.7877,22.9213 -91.6852,6.9761 -167.425,-88.6955 -35.8768,-44.846 -141.5141,-177.3908 -235.1924,-293.9904 -93.6783,-115.603 -175.39771,-220.2437 -181.37717,-230.2095 -20.92813,-39.8631 -8.9692,-65.7741 92.68177,-199.3156 55.8083,-74.7433 170.4147,-226.2232 255.1239,-336.8433 184.3669,-243.1649 181.3772,-234.1957 120.5859,-383.6825 -22.9212,-56.8049 -47.8358,-115.6029 -54.8118,-132.5448 -6.976,-15.9453 -23.9178,-54.8118 -37.87,-85.7057 -13.952,-30.8938 -36.8733,-64.7776 -53.8151,-76.7365 -22.9213,-15.9452 -119.5894,-36.8733 -442.4806,-95.6714 -227.21974,-40.8598 -420.55585,-77.7331 -429.52504,-80.7228 -42.85285,-16.9419 -47.83573,-37.87 -87.69885,-348.8023 -16.94182,-138.5243 -42.85284,-470.3847 -37.86996,-484.3368 2.98973,-8.9692 78.72965,-41.8563 173.40454,-76.7365 463.40869,-168.4216 629.83721,-229.2129 648.77211,-239.1787 10.9624,-5.9794 27.9043,-22.9213 37.87,-37.87 16.9419,-25.9109 77.7331,-321.8946 90.6886,-437.4976 8.9693,-81.7194 36.8734,-49.8288 -446.46687,-501.2786 -145.50036,-134.538 -197.32241,-190.3464 -202.30529,-212.2711 -7.97263,-33.8837 3.9863,-59.7946 207.28818,-449.4566 117.59618,-225.2266 147.49356,-267.0829 191.34288,-267.0829 11.959,0 162.4423,31.8906 334.8502,70.7571 510.2478,116.5996 485.3334,111.6166 533.1692,93.6783 52.8186,-19.9315 340.8296,-322.8912 361.7578,-381.6893 15.9452,-41.8563 13.952,-50.8255 -122.5792,-582.0014 -67.7672,-263.0966 -72.7501,-294.9872 -55.8083,-326.8776 8.9692,-15.9453 112.6132,-78.7297 306.946,-186.3601 39.8631,-21.9247 182.3737,-101.6509 308.9391,-173.4045 67.7672,-38.8665 60.7912,-43.8494 397.6345,292.9938 l 311.9289,310.9324 67.7673,-0.9967 c 71.7536,0 412.5832,-73.7466 461.4156,-99.6577 14.9486,-6.976 34.8801,-23.9179 43.8493,-35.8768 7.9727,-12.9555 68.7639,-185.3634 134.5381,-384.679 65.7741,-199.3156 126.5653,-377.703 133.5413,-395.6414 20.9282,-47.8357 59.7947,-64.7776 152.4765,-64.7776 206.2916,0.9965 631.8303,42.8528 668.7037,65.7741 31.8905,20.9282 37.87,37.87 72.7502,203.3019 15.9452,79.7262 38.8666,185.3635 49.8288,236.189 9.9659,49.8288 34.8803,166.4285 53.8152,259.1102 19.9316,95.6715 42.8529,178.3875 52.8187,192.3395 20.9281,27.9042 56.8049,47.8357 151.4798,82.716 35.8768,12.9555 114.6065,42.8529 174.4012,65.7741 83.7125,32.887 119.5893,40.8597 151.4798,37.87 41.8563,-3.9863 64.7775,-21.9247 593.9604,-448.4601 110.6201,-88.6953 134.5379,-98.6612 179.3839,-74.7433 11.959,5.9794 86.7023,60.7913 166.4286,120.586 471.3813,358.7679 448.46,338.8364 448.46,388.6652 0,13.9522 -36.8734,120.586 -80.7228,238.1821 -44.846,116.5996 -91.6852,239.1788 -103.6441,272.0659 -134.538,356.7748 -131.5482,339.833 -72.7502,422.549 137.5278,194.3326 201.3087,273.0622 233.1992,286.0178 30.8939,12.9555 55.8084,12.9555 221.2403,-5.9795 102.6476,-10.9624 229.2129,-24.9145 281.035,-29.8973 51.822,-5.9795 154.4695,-16.9419 227.2197,-24.9145 115.6031,-12.9555 137.5277,-12.9555 160.449,0 39.8631,19.9316 41.8563,24.9145 103.6442,194.3327 145.5002,402.6174 168.4216,466.3984 187.3566,512.241 39.8631,100.6543 58.798,80.7228 -394.6449,414.5764 -303.9562,223.2334 -308.9391,228.2163 -322.8912,276.0521 -13.9521,46.839 6.9761,330.8638 27.9042,370.7269 14.9487,29.8973 55.8084,53.8152 390.6585,224.2299 206.2916,104.6408 381.6893,196.3259 390.6585,203.302 24.9145,20.9281 29.8973,68.7638 12.9556,139.5209 -7.9727,36.8733 -42.853,197.3224 -76.7366,355.7782 -33.8837,159.4525 -67.7673,306.946 -74.7433,329.8673 -23.9178,68.7639 -27.9042,69.7604 -492.3095,99.6577 -303.9562,18.9351 -422.549,29.8974 -445.4702,40.8598 -34.8803,15.9452 -69.7605,66.7707 -141.5141,208.2847 -25.911,51.822 -40.8596,93.6784 -40.8596,117.5963 0,29.8973 29.8973,87.6988 160.4489,307.9425 88.6955,149.4866 185.3636,311.9288 214.2642,360.7611 87.6989,146.4969 103.6442,114.6065 -231.2059,458.4258 -156.4628,160.4491 -291.9973,294.987 -299.97,297.9768 -44.846,17.9384 -83.7125,1.9932 -355.7783,-149.4867 -153.473,-85.7057 -318.9049,-178.3874 -367.7372,-205.295 -78.7297,-45.8425 -91.6852,-49.8289 -134.538,-45.8425 -29.8973,3.9862 -71.7536,19.9314 -116.5996,44.8459 -37.87,21.9247 -89.6921,51.8221 -114.6065,64.7776 -31.8905,17.9384 -50.8254,37.8699 -66.7706,68.7639 -20.9282,40.8596 -22.9214,65.7741 -32.8871,375.7098 -13.9521,460.4189 -17.9384,507.2581 -43.8495,537.1554 -21.9246,24.9145 -43.8494,30.894 -419.5592,120.586 -70.7571,16.9417 -186.3601,44.846 -255.124,61.7878 -150.4832,35.8768 -160.449,35.8768 -192.3394,7.9726 z M 4754.7076,7449.9886 c 256.1205,-47.8358 438.4942,-106.6339 652.7585,-211.2745 532.1725,-260.1068 946.7489,-703.584 1164.0029,-1245.7223 123.5757,-307.9426 171.4114,-560.0767 170.4147,-901.9029 0,-396.638 -74.7433,-715.543 -248.1478,-1063.3485 -231.2061,-461.4156 -598.9433,-829.1528 -1058.3657,-1059.3623 -255.1238,-126.5654 -496.2957,-201.3087 -777.3307,-239.1787 -41.8563,-4.9829 -41.8563,-4.9829 -51.822,31.8905 -28.9008,107.6304 -61.7878,305.9494 -71.7536,423.5455 -13.9521,162.4423 -4.9829,471.3814 15.9452,581.005 46.8392,243.1649 123.5757,386.6721 302.9597,563.0665 213.2677,209.2813 424.5422,313.9219 705.5771,348.8022 77.7331,9.9657 128.5585,21.9247 360.7612,84.709 51.8221,13.9522 102.6475,22.9214 112.6133,18.9351 28.9008,-8.9692 35.8768,-39.8632 43.8494,-197.3225 3.9863,-80.7228 10.9623,-148.49 15.9452,-151.4797 27.9042,-16.9419 208.5259,129.1349 258.1137,234.1957 59.0535,125.1155 101.6509,250.141 19.9315,414.5763 -81.7193,164.4355 -334.8501,424.5422 -544.1314,558.0837 -36.8735,23.9178 -53.8152,42.8528 -63.781,70.757 -33.8837,98.6612 -183.3703,291.9973 -295.9836,383.6825 -171.4114,139.5208 -293.9905,198.3189 -532.1726,254.1273 -100.6544,22.9213 -591.9672,29.8973 -712.5531,8.9692 -474.3711,-80.7228 -797.2623,-242.1684 -1170.979,-585.9878 -121.5824,-111.6166 -307.9425,-310.9322 -385.6756,-410.59 -213.2677,-275.0555 -344.8159,-517.224 -541.1418,-988.6052 -15.9452,-37.87 -25.911,-26.9076 -47.8357,49.8289 -71.7536,247.1513 -81.7193,329.8673 -81.7193,681.6592 0,294.987 0.9965,303.9562 29.8973,451.4497 129.5551,650.7654 503.2718,1198.8832 1066.3382,1559.6443 40.8597,26.9076 144.5038,82.716 229.2129,123.5757 242.1684,119.5893 457.4292,184.3669 742.4505,226.2232 143.5072,19.9316 548.1178,11.9589 692.6216,-13.9521 z m 34.8803,-1706.1413 c 27.9041,-5.9794 101.6509,-25.911 164.4353,-44.846 166.4285,-48.8322 242.1684,-64.7775 312.9254,-64.7775 73.7468,0 125.5688,-8.9692 125.5688,-20.9282 0,-26.9076 -240.1753,-138.5242 -296.9802,-138.5242 -80.7228,0 -235.1924,59.7946 -360.7612,137.5277 -120.5858,74.7433 -173.4045,130.5517 -136.5312,144.5037 18.9351,6.9761 136.5312,-0.9965 191.3431,-12.9555 z"
         id="path4777"
         sodipodi:nodetypes="cccccccccccccccccscccccccccsccccccccccccsccccccccccccscccccccccccccscccccccccccccccccccccscccccccccccccccccccccccccccccccascccccccccscccccccsssccc"
         style="fill:#daa520;fill-opacity:1" />
    </g>
  </g>
</svg>
