<svg xmlns="http://www.w3.org/2000/svg" width="415304.731" height="55424.564" viewBox="0 0 389.34819 51.960529"><g style="line-height:125%;-inkscape-font-specification:Trueno" font-size="67.5" font-family="Trueno" letter-spacing="1.5" word-spacing="-4.62" fill="#daa520"><path d="M0 9.904h14.917V50h7.965V9.903h14.985V2.75H0v7.154zM45.206 50h34.56v-7.156H53.17V29.817h23.086v-7.155H53.17V9.904h25.786V2.75h-33.75V50zM83.94 50h8.303l4.522-10.666h23.828L125.115 50h8.505L112.965 2.75h-8.167L83.94 50zm15.795-17.753l8.91-20.993 8.91 20.993h-17.82zM140.497 50h7.492V14.696l14.917 30.375h5.197l14.918-30.375L183.09 50h7.357V2.75h-9.383L165.54 34.136 149.946 2.75h-9.45V50z" letter-spacing=".58"/><path d="M216.964 38.39h22.545V50h7.424V38.39h6.885V31.3h-6.886V20.097h-7.425v11.205h-14.04L240.79 2.75h-7.695l-16.133 29.7v5.94z" letter-spacing="-.04"/><path d="M314.597 18.274c0 9.18 5.738 15.053 15.188 15.053 5.94 0 10.395-2.295 12.892-6.683.27 10.193-3.982 17.078-13.162 17.078-3.578 0-7.56-1.08-10.463-2.97l-3.105 6.007c3.848 2.16 9.45 3.577 14.108 3.577 12.487 0 20.385-9.855 20.385-24.908 0-14.513-7.29-23.018-19.238-23.018-10.057 0-16.605 6.075-16.605 15.862zm7.425.068c0-5.738 3.848-9.045 9.585-9.045 6.818 0 9.855 4.657 9.788 8.775.067 4.86-3.713 8.977-10.125 8.977-5.738 0-9.248-3.308-9.248-8.708zM353.506 18.274c0 9.18 5.737 15.053 15.187 15.053 5.94 0 10.395-2.295 12.893-6.683.27 10.193-3.983 17.078-13.163 17.078-3.577 0-7.56-1.08-10.462-2.97l-3.104 6.007c3.847 2.16 9.45 3.577 14.107 3.577 12.488 0 20.385-9.855 20.385-24.908 0-14.513-7.29-23.018-19.237-23.018-10.057 0-16.604 6.075-16.604 15.862zm7.425.068c0-5.738 3.848-9.045 9.586-9.045 6.817 0 9.855 4.657 9.787 8.775.068 4.86-3.712 8.977-10.125 8.977-5.737 0-9.247-3.308-9.247-8.708z" letter-spacing="1.38"/></g><path d="M288.517.128c-.096.084-.364.518-.607.98-1.534 2.9-1.988 3.725-2.154 3.904l-.186.2-1.035.043c-.927.04-1.068.032-1.26-.07-.217-.115-.403-.352-1.476-1.905-.25-.352-.596-.857-.78-1.12-.18-.26-.5-.72-.698-1.015-.435-.627-.576-.735-.902-.697-.134.02-1.265.377-2.512.806-1.88.64-2.295.8-2.423.946-.18.21-.18.128.096 3.586l.167 2.065-.147.25c-.076.14-.172.27-.217.288-.038.013-.377.243-.748.505-.812.575-1.01.684-1.266.684-.103 0-.89-.294-1.746-.646-2.346-.977-3.056-1.27-3.33-1.373-.397-.147-.59-.045-1.075.57-.23.286-.908 1.137-1.51 1.885-.6.74-1.124 1.412-1.163 1.476-.134.256-.057.422.595 1.28.358.478 1.093 1.45 1.636 2.16 1.183 1.56 1.164 1.502.774 2.46-.147.365-.307.742-.352.85-.044.103-.153.353-.243.55-.09.2-.236.416-.345.493-.147.103-.767.238-2.838.615-1.458.262-2.698.498-2.755.518-.276.108-.308.242-.564 2.237-.11.89-.275 3.017-.243 3.107.02.057.505.268 1.112.492 2.973 1.08 4.04 1.47 4.162 1.533.07.04.18.147.243.243.11.166.5 2.065.582 2.807.057.524.236.32-2.864 3.215-.934.863-1.266 1.22-1.298 1.362-.05.217.026.383 1.33 2.883.754 1.445.946 1.713 1.227 1.713.077 0 1.042-.204 2.148-.454 3.273-.748 3.113-.716 3.42-.6.34.127 2.186 2.07 2.32 2.448.103.268.09.326-.786 3.733-.435 1.688-.467 1.892-.36 2.097.06.102.724.505 1.97 1.195.256.14 1.17.652 1.982 1.113.435.25.39.28 2.55-1.88l2.002-1.994.434.006c.46 0 2.647.473 2.96.64.096.044.224.153.282.23.05.083.44 1.19.863 2.467.42 1.28.81 2.423.856 2.538.133.307.383.416.977.416 1.324-.006 4.053-.274 4.29-.42.204-.136.243-.244.466-1.305.103-.512.25-1.19.32-1.516.064-.32.224-1.068.345-1.663.128-.613.275-1.144.34-1.233.133-.18.363-.307.97-.53.23-.084.736-.276 1.12-.423.537-.21.767-.26.97-.242.27.026.417.14 3.81 2.877.71.57.864.633 1.152.48.077-.04.556-.39 1.068-.774 3.023-2.3 2.876-2.173 2.876-2.492 0-.09-.236-.774-.518-1.528-.287-.748-.588-1.535-.664-1.745-.863-2.29-.844-2.18-.467-2.71.882-1.248 1.29-1.753 1.496-1.836.2-.084.36-.084 1.42.038.658.07 1.47.16 1.803.19.332.04.99.11 1.457.16.742.084.882.084 1.03 0 .255-.127.268-.16.664-1.245.934-2.583 1.08-2.992 1.202-3.286.256-.646.377-.518-2.53-2.66-1.95-1.43-1.983-1.463-2.073-1.77-.09-.3.045-2.123.18-2.378.095-.193.357-.347 2.505-1.44 1.324-.67 2.45-1.26 2.506-1.304.16-.134.192-.44.083-.895-.05-.235-.274-1.265-.492-2.28-.217-1.024-.435-1.97-.48-2.117-.153-.44-.178-.448-3.157-.64-1.95-.12-2.71-.19-2.858-.26-.224-.104-.447-.43-.908-1.337-.166-.333-.262-.6-.262-.755 0-.19.192-.56 1.03-1.974.57-.96 1.19-2 1.374-2.314.563-.94.665-.735-1.483-2.94-1.003-1.03-1.872-1.893-1.923-1.912-.288-.115-.537-.013-2.283.96-.984.548-2.045 1.143-2.358 1.315-.505.294-.59.32-.863.294-.192-.026-.46-.128-.748-.288-.243-.14-.576-.333-.736-.416-.205-.115-.327-.243-.43-.44-.133-.263-.146-.423-.21-2.41-.09-2.954-.115-3.255-.28-3.447-.142-.16-.282-.2-2.692-.774-.454-.11-1.196-.288-1.637-.396-.964-.23-1.028-.23-1.233-.052zm-.74 10.715c1.642.306 2.81.684 4.186 1.355 3.414 1.668 6.073 4.513 7.467 7.99.792 1.976 1.1 3.593 1.093 5.786 0 2.544-.48 4.59-1.592 6.82-1.482 2.96-3.84 5.32-6.788 6.797-1.637.813-3.184 1.292-4.986 1.535-.27.032-.27.032-.333-.205-.185-.69-.396-1.962-.46-2.717-.09-1.042-.032-3.023.102-3.727.3-1.56.793-2.48 1.944-3.61 1.367-1.344 2.722-2.015 4.525-2.24.498-.063.824-.14 2.314-.542.33-.09.657-.147.72-.122.187.058.23.256.282 1.266.026.518.07.953.103.972.18.108 1.337-.83 1.655-1.503.38-.802.652-1.604.128-2.66-.524-1.054-2.148-2.722-3.49-3.58-.237-.152-.345-.274-.41-.453-.217-.633-1.176-1.873-1.898-2.46-1.1-.896-1.886-1.273-3.414-1.63-.645-.148-3.797-.193-4.57-.06-3.043.52-5.115 1.555-7.512 3.76-.78.716-1.975 1.995-2.474 2.634-1.368 1.765-2.212 3.318-3.47 6.342-.103.243-.167.172-.308-.32-.46-1.585-.524-2.116-.524-4.373 0-1.892.006-1.95.192-2.895.83-4.175 3.228-7.69 6.84-10.005.262-.173.927-.53 1.47-.793 1.554-.767 2.934-1.182 4.763-1.45.92-.13 3.516-.078 4.443.09zm.222 10.944c.178.038.65.166 1.054.288 1.068.313 1.554.415 2.008.415.473 0 .805.058.805.134 0 .173-1.54.89-1.905.89-.518 0-1.51-.385-2.314-.883-.774-.48-1.113-.837-.876-.926.12-.045.876.006 1.227.083z" fill="#daa520"/></svg>
